<svg width="200" height="192" viewBox="0 0 200 192" fill="none" xmlns="http://www.w3.org/2000/svg">
<path d="M32.4 78V22H54.24C59.1467 22 63.3333 22.7733 66.8 24.32C70.2667 25.8667 72.9333 28.1067 74.8 31.04C76.6667 33.9733 77.6 37.4667 77.6 41.52C77.6 45.5733 76.6667 49.0667 74.8 52C72.9333 54.88 70.2667 57.0933 66.8 58.64C63.3333 60.1867 59.1467 60.96 54.24 60.96H36.8L40.4 57.28V78H32.4ZM69.84 78L55.6 57.68H64.16L78.56 78H69.84ZM40.4 58.08L36.8 54.16H54C59.12 54.16 62.9867 53.0667 65.6 50.88C68.2667 48.64 69.6 45.52 69.6 41.52C69.6 37.52 68.2667 34.4267 65.6 32.24C62.9867 30.0533 59.12 28.96 54 28.96H36.8L40.4 24.96V58.08Z" fill="black"/>
<path d="M37.28 164L18.56 108H26.8L44 159.68H39.84L57.68 108H65.04L82.48 159.68H78.48L95.92 108H103.52L84.8 164H76.4L60.08 116.08H62.24L45.84 164H37.28Z" fill="black"/>
<path d="M126.4 164V108H148.24C153.147 108 157.333 108.773 160.8 110.32C164.267 111.867 166.933 114.107 168.8 117.04C170.667 119.973 171.6 123.467 171.6 127.52C171.6 131.573 170.667 135.067 168.8 138C166.933 140.88 164.267 143.093 160.8 144.64C157.333 146.187 153.147 146.96 148.24 146.96H130.8L134.4 143.28V164H126.4ZM163.84 164L149.6 143.68H158.16L172.56 164H163.84ZM134.4 144.08L130.8 140.16H148C153.12 140.16 156.987 139.067 159.6 136.88C162.267 134.64 163.6 131.52 163.6 127.52C163.6 123.52 162.267 120.427 159.6 118.24C156.987 116.053 153.12 114.96 148 114.96H130.8L134.4 110.96V144.08Z" fill="black"/>
<path d="M133.44 64.48L133.04 54.72L164.8 22H173.92L149.36 47.92L144.88 52.88L133.44 64.48ZM126.4 78V22H134.4V78H126.4ZM166.08 78L143.12 51.28L148.48 45.36L175.44 78H166.08Z" fill="black"/>
<rect x="4" y="4" width="192" height="184" stroke="black" stroke-width="8"/>
</svg>
